<?xml version="1.0" encoding="UTF-8"?>
<svg xmlns="http://www.w3.org/2000/svg" viewBox="0 0 280 280">
  <g id="_圖層_3" data-name="圖層 3">
    <rect x="10" y="10" width="260" height="260" rx="75.61" ry="75.61" style="fill: #cbe1f4; stroke: #7cb5e0; stroke-miterlimit: 10; stroke-width: 20px;"/>
  </g>
  <g id="_圖層_2" data-name="圖層 2">
    <path d="M71.93,73.2c-6.34,9.51-9.77,20.8-10.43,32.16s2.1,23.02,7.34,33.19c1.15,2.24,2.53,4.32,3.86,6.45,1.54,2.45,2.87,5.02,4.01,7.68l-1.06-2.51c1.89,4.51,3.18,9.23,3.83,14.08l-.38-2.79c.6,4.68.6,9.4,0,14.09l.38-2.79c-.65,4.85-1.94,9.57-3.83,14.08l1.06-2.51c-1.33,3.1-2.92,6.07-4.79,8.88-1.46,2.19-1.74,5.62-1.06,8.09s2.55,5.08,4.83,6.28c2.44,1.29,5.39,1.93,8.09,1.06s4.7-2.46,6.28-4.83c6.34-9.51,9.77-20.8,10.43-32.16s-2.1-23.02-7.34-33.19c-1.15-2.24-2.53-4.32-3.86-6.45-1.54-2.45-2.87-5.02-4.01-7.68l1.06,2.51c-1.89-4.51-3.18-9.23-3.83-14.08l.38,2.79c-.6-4.68-.6-9.4,0-14.09l-.38,2.79c.65-4.85,1.94-9.57,3.83-14.08l-1.06,2.51c1.33-3.1,2.92-6.07,4.79-8.88,1.46-2.19,1.74-5.62,1.06-8.09s-2.55-5.08-4.83-6.28c-2.44-1.29-5.39-1.93-8.09-1.06s-4.7,2.46-6.28,4.83h0Z" style="fill: #aea4ea; stroke-width: 0px;"/>
    <path d="M190.93,72.73c-6.34,9.51-9.77,20.8-10.43,32.16-.66,11.46,2.1,23.02,7.34,33.19,1.15,2.24,2.53,4.32,3.86,6.45,1.54,2.45,2.87,5.02,4.01,7.68l-1.06-2.51c1.89,4.51,3.18,9.23,3.83,14.08l-.38-2.79c.6,4.68.6,9.4,0,14.09l.38-2.79c-.65,4.85-1.94,9.57-3.83,14.08l1.06-2.51c-1.33,3.1-2.92,6.07-4.79,8.88-1.46,2.19-1.74,5.62-1.06,8.09s2.55,5.08,4.83,6.28c2.44,1.29,5.39,1.93,8.09,1.06s4.7-2.46,6.28-4.83c6.34-9.51,9.77-20.8,10.43-32.16s-2.1-23.02-7.34-33.19c-1.15-2.24-2.53-4.32-3.86-6.45-1.54-2.45-2.87-5.02-4.01-7.68l1.06,2.51c-1.89-4.51-3.18-9.23-3.83-14.08l.38,2.79c-.6-4.68-.6-9.4,0-14.09l-.38,2.79c.65-4.85,1.94-9.57,3.83-14.08l-1.06,2.51c1.33-3.1,2.92-6.07,4.79-8.88,1.46-2.19,1.74-5.62,1.06-8.09s-2.55-5.08-4.83-6.28c-2.44-1.29-5.39-1.93-8.09-1.06s-4.7,2.46-6.28,4.83h0Z" style="fill: #aea4ea; stroke-width: 0px;"/>
    <path d="M130.93,72.73c-6.34,9.51-9.77,20.8-10.43,32.16s2.1,23.02,7.34,33.19c1.15,2.24,2.53,4.32,3.86,6.45,1.54,2.45,2.87,5.02,4.01,7.68l-1.06-2.51c1.89,4.51,3.18,9.23,3.83,14.08l-.38-2.79c.6,4.68.6,9.4,0,14.09l.38-2.79c-.65,4.85-1.94,9.57-3.83,14.08l1.06-2.51c-1.33,3.1-2.92,6.07-4.79,8.88-1.46,2.19-1.74,5.62-1.06,8.09s2.55,5.08,4.83,6.28c2.44,1.29,5.39,1.93,8.09,1.06s4.7-2.46,6.28-4.83c6.34-9.51,9.77-20.8,10.43-32.16.66-11.46-2.1-23.02-7.34-33.19-1.15-2.24-2.53-4.32-3.86-6.45-1.54-2.45-2.87-5.02-4.01-7.68l1.06,2.51c-1.89-4.51-3.18-9.23-3.83-14.08l.38,2.79c-.6-4.68-.6-9.4,0-14.09l-.38,2.79c.65-4.85,1.94-9.57,3.83-14.08l-1.06,2.51c1.33-3.1,2.92-6.07,4.79-8.88,1.46-2.19,1.74-5.62,1.06-8.09s-2.55-5.08-4.83-6.28c-2.44-1.29-5.39-1.93-8.09-1.06s-4.7,2.46-6.28,4.83h0Z" style="fill: #aea4ea; stroke-width: 0px;"/>
  </g>
</svg>